<svg width="95" height="24" fill="none" xmlns="http://www.w3.org/2000/svg"><path d="M93.668 10.69c0-5.382-3.75-9.167-9.006-9.167-6.692 0-11.177 4.862-11.177 11.805 0 5.418 3.786 9.167 9.132 9.167 4.862 0 8.486-2.35 9.975-6.1h-5.4c-.718 1.167-2.243 1.902-4.109 1.902-2.87 0-4.664-1.902-4.826-4.593h15.106c.198-1.022.305-1.901.305-3.014zm-14.998-.628c.484-2.475 2.888-4.449 5.795-4.449 2.511 0 4.413 1.83 4.413 4.45H78.67zM58.971 22.01l.969-5.166c2.96.592 3.409-1.077 4.18-5.095l.377-1.992c1.076-5.615 3.247-8.414 9.455-7.66l-.97 5.167c-2.96-.592-3.48 1.65-4.143 5.13l-.377 1.992c-1.077 5.687-3.32 8.378-9.49 7.625zM51.723 22.029l3.66-20.022h4.826l-3.642 20.022h-4.844zM24.076 2.007h4.683l1.525 14.478L36.42 2.007h4.646L42.7 16.629l5.92-14.622h4.665l-8.486 20.022h-5.31L37.764 8.25 31.9 22.03h-5.132l-2.69-20.022z" fill="#2E4369"/><path d="M6.584 7.317l-5.561 5.31h9.454l.987-2.314h-4.79L9.67 7.317 7.93 4.321h8.127l-7.5 17.708h2.817L19.86 2.007H3.463l3.121 5.31z" fill="#00B9FF"/></svg>